<!-- icon666.com - MILLIONS vector ICONS FREE --><svg id="Layer_1" enable-background="new 0 0 24 24" viewBox="0 0 24 24" xmlns="http://www.w3.org/2000/svg"><g><path d="m20 13h-16c-.6 0-1-.4-1-1s.4-1 1-1h16c.6 0 1 .4 1 1s-.4 1-1 1z" fill="rgb(0,0,0)" style="fill: rgb(33, 33, 33);"></path></g><g><path d="m10 19c-.3 0-.5-.1-.7-.3l-5.9-5.9c-.4-.4-.4-1.1 0-1.5l5.9-5.9c.4-.4 1-.4 1.4 0s.4 1 0 1.4l-5.3 5.2 5.3 5.3c.4.4.4 1 0 1.4-.2.2-.4.3-.7.3z" fill="rgb(0,0,0)" style="fill: rgb(33, 33, 33);"></path></g></svg>