<!-- icon666.com - MILLIONS vector ICONS FREE --><svg id="Layer_1" viewBox="0 0 256 256" xmlns="http://www.w3.org/2000/svg" data-name="Layer 1"><path d="m177.67 177.921h-65.457a5 5 0 0 1 0-10h61.143l15.877-107.181h-125.133a5 5 0 0 1 0-10h130.928a5 5 0 0 1 4.946 5.733l-17.358 117.18a5 5 0 0 1 -4.946 4.268z" fill="#000000" style="fill: rgb(15, 69, 63);"></path><path d="m84.873 177.921h-38.135a5 5 0 0 1 0-10h38.135a5 5 0 0 1 0 10z" fill="#000000" style="fill: rgb(15, 69, 63);"></path><path d="m200.268 177.921h-22.6a5 5 0 0 1 0-10h22.6a5 5 0 0 1 0 10z" fill="#000000" style="fill: rgb(15, 69, 63);"></path><path d="m247.234 177.921h-19.627a5 5 0 0 1 0-10h15.109l2.742-26.985c.014-.139.034-.277.06-.415a7.479 7.479 0 0 0 -7.351-8.854h-5.852a5 5 0 0 1 -4.974-5.507l2.247-22.037c.014-.139.034-.276.059-.413a12.725 12.725 0 0 0 -12.51-15.067h-26.237a5 5 0 0 1 0-10h26.242a22.726 22.726 0 0 1 22.379 26.689l-1.665 16.335h.316a17.478 17.478 0 0 1 17.22 20.471l-3.179 31.289a5 5 0 0 1 -4.979 4.494z" fill="#000000" style="fill: rgb(15, 69, 63);"></path><path d="m232.315 131.667h-29.415a5 5 0 0 1 0-10h29.414a5 5 0 0 1 0 10z" fill="#000000" style="fill: rgb(15, 69, 63);"></path><path d="m213.938 191.59a18.67 18.67 0 1 1 18.669-18.669 18.691 18.691 0 0 1 -18.669 18.669zm0-27.339a8.67 8.67 0 1 0 8.669 8.67 8.68 8.68 0 0 0 -8.669-8.67z" fill="#000000" style="fill: rgb(15, 69, 63);"></path><path d="m98.543 191.59a18.67 18.67 0 1 1 18.67-18.669 18.691 18.691 0 0 1 -18.67 18.669zm0-27.339a8.67 8.67 0 1 0 8.67 8.67 8.68 8.68 0 0 0 -8.67-8.67z" fill="#000000" style="fill: rgb(15, 69, 63);"></path><path d="m101.605 86.274h-65.248a5 5 0 0 1 0-10h65.248a5 5 0 1 1 0 10z" fill="#000000" style="fill: rgb(15, 69, 63);"></path><path d="m68.981 119.33h-49.749a5 5 0 0 1 0-10h49.749a5 5 0 0 1 0 10z" fill="#000000" style="fill: rgb(15, 69, 63);"></path><path d="m41.244 152.386h-35.893a5 5 0 0 1 0-10h35.893a5 5 0 0 1 0 10z" fill="#000000" style="fill: rgb(15, 69, 63);"></path></svg>