<!-- icon666.com - MILLIONS vector ICONS FREE --><svg id="Line" viewBox="0 0 64 64" xmlns="http://www.w3.org/2000/svg"><path d="m58.89893 11.35138a32.02957 32.02957 0 0 0 -19.99756 3.5874c-7.676 4.41315-5.59851 13.40436-3.21942 18.02966a35.579 35.579 0 0 0 -4.40705 11.19483 52.90035 52.90035 0 0 0 -4.11871-14.58978c5.15912-4.98236 3.49554-11.45526 2.836-13.36811a8.75988 8.75988 0 0 0 -.51514-1.20117c-5.82422-11.14062-23.56055-8.68066-24.31299-8.56933a.99929.99929 0 0 0 -.83838.80859 32.023 32.023 0 0 0 3.58692 19.99753 10.38329 10.38329 0 0 0 9.52881 5.39306 19.24168 19.24168 0 0 0 7.96359-1.91232c2.61737 5.72626 4.74341 14.07977 4.74341 26.14917a1 1 0 0 0 2 0c0-.5166-.01441-1.00781-.02173-1.51147a.93663.93663 0 0 0 .02173-.10767c0-9.39191 2.10815-16.02716 4.80511-20.68408a11.62044 11.62044 0 0 0 8.21248 3.24707 15.05493 15.05493 0 0 0 4.7705-.79639 8.74069 8.74069 0 0 0 1.20215-.51562c11.14014-5.82325 8.6792-23.56055 8.56885-24.313a.9993.9993 0 0 0 -.80857-.83837zm-42.39793 5.92969a1 1 0 0 0 -.7666 1.84716c.08233.03492 4.77893 2.15046 8.78887 9.7909-2.83427 1.31396-10.8979 4.24573-14.87727-2.67513-4.26514-7.4185-3.73731-15.49174-3.45362-17.91459 3.32813-.32618 16.96778-1.09131 21.51221 7.60159a6.73149 6.73149 0 0 1 .397.92676c.69 2.00171 1.79187 6.8645-1.87848 10.83593-4.27481-8.03005-9.35623-10.26181-9.72211-10.41262zm33.71045 17.4497a6.69084 6.69084 0 0 1 -.92627.39649c-2.07154.71344-7.20172 1.85449-11.24262-2.29279 4.49506-6.59808 9.981-8.43286 10.36762-8.55438a1.00019 1.00019 0 0 0 -.59082-1.91113c-.10138.03137-5.89917 1.93713-10.8263 8.66449-1.37689-3.19782-3.631-10.60272 2.9054-14.36127 7.418-4.26562 15.49072-3.73828 17.91455-3.4541.32664 3.33105 1.0908 16.96875-7.60158 21.51269z" fill="rgb(0,0,0)" style="fill: rgb(15, 69, 63);"></path></svg>